<svg width="25" height="25" viewBox="0 0 25 25" fill="none" xmlns="http://www.w3.org/2000/svg">
<rect width="25" height="25" fill="white"/>
<path d="M21.5625 9.85714C21.9593 9.85714 22.2981 10.0176 22.5789 10.3384C22.8596 10.6593 23 11.0465 23 11.5C23 11.9535 22.8596 12.3407 22.5789 12.6616C22.2981 12.9824 21.9593 13.1429 21.5625 13.1429H21.394L20.1025 21.6395C20.0426 22.0331 19.8779 22.3583 19.6084 22.615C19.3389 22.8717 19.0319 23 18.6875 23H4.3125C3.9681 23 3.66113 22.8717 3.3916 22.615C3.12207 22.3583 2.95736 22.0331 2.89746 21.6395L1.60596 13.1429H1.4375C1.04069 13.1429 0.701904 12.9824 0.421143 12.6616C0.140381 12.3407 0 11.9535 0 11.5C0 11.0465 0.140381 10.6593 0.421143 10.3384C0.701904 10.0176 1.04069 9.85714 1.4375 9.85714H21.5625ZM5.44678 20.125C5.64144 20.1079 5.80428 20.0116 5.9353 19.8362C6.06632 19.6608 6.12435 19.4619 6.10938 19.2394L5.75 13.9001C5.73503 13.6776 5.6508 13.4915 5.49731 13.3418C5.34383 13.1921 5.16976 13.1257 4.9751 13.1429C4.78044 13.16 4.61759 13.2562 4.48657 13.4316C4.35555 13.607 4.29753 13.806 4.3125 14.0285L4.67188 19.3677C4.68685 19.5817 4.76359 19.7613 4.9021 19.9068C5.04061 20.0523 5.20345 20.125 5.39062 20.125H5.44678ZM10.0625 19.3036V13.9643C10.0625 13.7418 9.99137 13.5493 9.84912 13.3867C9.70687 13.2241 9.53841 13.1429 9.34375 13.1429C9.14909 13.1429 8.98063 13.2241 8.83838 13.3867C8.69613 13.5493 8.625 13.7418 8.625 13.9643V19.3036C8.625 19.526 8.69613 19.7186 8.83838 19.8811C8.98063 20.0437 9.14909 20.125 9.34375 20.125C9.53841 20.125 9.70687 20.0437 9.84912 19.8811C9.99137 19.7186 10.0625 19.526 10.0625 19.3036ZM14.375 19.3036V13.9643C14.375 13.7418 14.3039 13.5493 14.1616 13.3867C14.0194 13.2241 13.8509 13.1429 13.6562 13.1429C13.4616 13.1429 13.2931 13.2241 13.1509 13.3867C13.0086 13.5493 12.9375 13.7418 12.9375 13.9643V19.3036C12.9375 19.526 13.0086 19.7186 13.1509 19.8811C13.2931 20.0437 13.4616 20.125 13.6562 20.125C13.8509 20.125 14.0194 20.0437 14.1616 19.8811C14.3039 19.7186 14.375 19.526 14.375 19.3036ZM18.3281 19.3677L18.6875 14.0285C18.7025 13.806 18.6444 13.607 18.5134 13.4316C18.3824 13.2562 18.2196 13.16 18.0249 13.1429C17.8302 13.1257 17.6562 13.1921 17.5027 13.3418C17.3492 13.4915 17.265 13.6776 17.25 13.9001L16.8906 19.2394C16.8757 19.4619 16.9337 19.6608 17.0647 19.8362C17.1957 20.0116 17.3586 20.1079 17.5532 20.125H17.6094C17.7965 20.125 17.9594 20.0523 18.0979 19.9068C18.2364 19.7613 18.3132 19.5817 18.3281 19.3677ZM5.3457 3.74777L4.30127 9.03571H2.81885L3.95312 3.37556C4.09538 2.62258 4.42855 2.00865 4.95264 1.53376C5.47673 1.05887 6.07568 0.821429 6.74951 0.821429H8.625C8.625 0.598958 8.69613 0.406436 8.83838 0.243862C8.98063 0.0812872 9.14909 0 9.34375 0H13.6562C13.8509 0 14.0194 0.0812872 14.1616 0.243862C14.3039 0.406436 14.375 0.598958 14.375 0.821429H16.2505C16.9243 0.821429 17.5233 1.05887 18.0474 1.53376C18.5715 2.00865 18.9046 2.62258 19.0469 3.37556L20.1812 9.03571H18.6987L17.6543 3.74777C17.5719 3.37128 17.4016 3.06324 17.1433 2.82366C16.885 2.58408 16.5874 2.46429 16.2505 2.46429H14.375C14.375 2.68676 14.3039 2.87928 14.1616 3.04185C14.0194 3.20443 13.8509 3.28571 13.6562 3.28571H9.34375C9.14909 3.28571 8.98063 3.20443 8.83838 3.04185C8.69613 2.87928 8.625 2.68676 8.625 2.46429H6.74951C6.4126 2.46429 6.11499 2.58408 5.85669 2.82366C5.59839 3.06324 5.42806 3.37128 5.3457 3.74777Z" fill="black"/>
</svg>
